<svg id="Group_1254" data-name="Group 1254" xmlns="http://www.w3.org/2000/svg" viewBox="0 0 627.45 636.321">
  <defs>
    <style>
      .cls-1 {
        fill: #4eaec5;
      }

      .cls-2 {
        fill: #3c4656;
      }

      .cls-3 {
        fill: #2f3844;
      }

      .cls-4 {
        fill: #c0c2c4;
      }

      .cls-5 {
        fill: #161d26;
      }

      .cls-6 {
        fill: #c9cacb;
      }

      .cls-7 {
        fill: #85d9ef;
      }

      .cls-8 {
        fill: #ededee;
      }

      .cls-9 {
        fill: #dbdcdc;
      }

      .cls-10 {
        fill: #61dafb;
      }
    </style>
  </defs>
  <path id="Path_853" data-name="Path 853" class="cls-1" d="M241.322,235.3v12.064A13.409,13.409,0,0,1,228,260.686H187.786a61.65,61.65,0,0,1-6.786-.5Z" transform="translate(273.905 356.212)"/>
  <path id="Path_854" data-name="Path 854" class="cls-1" d="M6.554,223.1l90.483,37.45a3.633,3.633,0,0,0,1.759.5,60.883,60.883,0,0,1-32.674,9.8H20.88A15.125,15.125,0,0,1,5.8,255.777V222.6C6.051,222.851,6.3,223.1,6.554,223.1Z" transform="translate(8.756 336.992)"/>
  <path id="Path_855" data-name="Path 855" class="cls-2" d="M12.805,310.642l182.222-95.509c77.664-38.2,154.323-96.263,205.345-61.076,73.643,51.022-136.729,194.286-154.323,210.121-35.69,31.92-121.4,28.4-144.018,19.1l-84.2-30.915C3.506,346.584-11.323,335.022,12.805,310.642Z" transform="translate(-0.009 216.778)"/>
  <path id="Path_856" data-name="Path 856" class="cls-2" d="M349.61,313.826s7.037-54.541,3.268-68.365-103.3-100.033-160.355-76.407c-31.92,13.321-17.845,49.765-27.4,80.68-.754,1.759-24.883,39.209-25.385,40.717l-17.091,28.4a24.96,24.96,0,0,0,13.572,32.674l53.787,28.653c9.8,4.021,37.952,11.059,60.322,1.759l77.664-32.172C341.819,343.484,348.856,331.671,349.61,313.826Z" transform="translate(182.708 249.787)"/>
  <path id="Path_857" data-name="Path 857" class="cls-3" d="M205.786,188.6s24.129,20.359,22.621,23.375-12.567,7.54-17.091,4.524S189.7,191.616,189.7,191.616Z" transform="translate(287.072 285.536)"/>
  <path id="Path_858" data-name="Path 858" class="cls-3" d="M205.992,187.8s23.123,18.6,23.877,23.877-.5,71.129-3.77,77.162c-3.519,6.032-4.524,3.77-4.524.5s3.77-71.632,2.262-76.407S198.2,189.057,198.2,189.057Z" transform="translate(299.935 284.325)"/>
  <path id="Path_859" data-name="Path 859" class="cls-3" d="M205.916,201.241S92.561,293.483,80.5,295.745s-8.546-1.508-7.54-4.273,122.905-96.263,123.408-94.253Z" transform="translate(108.49 298.532)"/>
  <path id="Path_860" data-name="Path 860" class="cls-3" d="M174.355,197.962s-86.964,66.857-88.723,65.348c-2.011-1.508-5.027-3.519-2.262-5.781s86.964-61.83,86.964-61.83Z" transform="translate(124.467 296.281)"/>
  <path id="Path_861" data-name="Path 861" class="cls-2" d="M291.36,108.558A30.537,30.537,0,0,0,279.3,67.087l-9.048-5.027a30.537,30.537,0,0,0-41.471,12.064L169.46,181.7a30.536,30.536,0,0,0,12.064,41.471l9.048,5.027a30.537,30.537,0,0,0,41.471-12.064Z" transform="translate(250.76 88.35)"/>
  <path id="Path_862" data-name="Path 862" class="cls-1" d="M286.9,125.486S273.073,71.7,256.988,35c0,0-3.268-10.054-32.423-6.032h0a.923.923,0,0,0-.754.251h-.754C193.9,34,193.65,44.555,193.65,44.555c-4.273,38.455-3.519,95.258-3.519,95.509,17.594,15.08,42.225,13.321,50.017,12.567h0a4.4,4.4,0,0,0,1.257-.251,3.052,3.052,0,0,0,1.257-.251h0C250.453,150.62,274.33,145.091,286.9,125.486Z" transform="translate(287.646 42.517)"/>
  <path id="Path_863" data-name="Path 863" class="cls-1" d="M220.166,10.345a37.666,37.666,0,0,1,42.728,31.669c3.016,20.61-11.813,27.647-32.172,30.664s-38.958,1.005-41.974-19.6A37.352,37.352,0,0,1,220.166,10.345Z" transform="translate(285.007 15.149)"/>
  <path id="Path_864" data-name="Path 864" class="cls-4" d="M205.054,49.918l103.3,16.84c3.016.5,8.546-6.786,9.3-10.556h0c.754-3.77-2.011-12.064-5.027-12.818l-93.5-14.578C216.113,28.3,202.037,49.164,205.054,49.918Z" transform="translate(309.671 43.689)"/>
  <g id="Group_488" data-name="Group 488" transform="translate(211.846 322.793)">
    <path id="Path_865" data-name="Path 865" class="cls-1" d="M130.045,200.438a61.767,61.767,0,0,1,4.775-10.054A63.406,63.406,0,0,1,253.2,201.695l12.316,46a15.742,15.742,0,0,1-11.31,19.353l-46,12.315c-19.856,5.278-53.033-9.3-52.028-8.545l-31.92-11.31a14.487,14.487,0,0,1-8.8-18.348Z" transform="translate(-38.293 -88.806)"/>
    <path id="Path_866" data-name="Path 866" class="cls-1" d="M154.3,173.44a69.326,69.326,0,0,1,89.226-31.669,163.834,163.834,0,0,0,33.931,91.237,182.022,182.022,0,0,0,15.835,17.845,17.7,17.7,0,0,1-13.572,12.818l-51.022,9.8a82.172,82.172,0,0,1-13.321,1.257l-11.562-43.482A89.46,89.46,0,0,0,154.3,173.44Z" transform="translate(21.651 -116.851)"/>
    <path id="Path_867" data-name="Path 867" class="cls-1" d="M104.164,207.594a161.762,161.762,0,0,0,55.8-78.418,68.263,68.263,0,0,1,77.162,53.033,87.788,87.788,0,0,0-62.081,42.477l-22.369,38.706a57.862,57.862,0,0,1-12.567-4.524L93.859,236.5a16.654,16.654,0,0,1-9.551-15.583A152.068,152.068,0,0,0,104.164,207.594Z" transform="translate(-84.295 -128.385)"/>
  </g>
  <path id="Path_868" data-name="Path 868" class="cls-5" d="M102.3,227.166s15.08-65.348,48.006-121.146c0,0,15.332-14.075,86.21-5.278h0c.754,0,1.257.251,2.011.251s1.257.251,2.011.251h0c70.878,10.054,81.937,27.647,81.937,27.647,17.342,62.584,14.829,129.44,14.829,129.44-39.963,21.867-99.531,17.091-118.381,15.081h0a14.064,14.064,0,0,1-3.016-.5,28.442,28.442,0,0,1-3.016-.5h0C193.788,269.642,135.477,258.835,102.3,227.166Z" transform="translate(154.8 148.194)"/>
  <path id="Path_869" data-name="Path 869" class="cls-1" d="M183.975,86.007A117.645,117.645,0,0,0,197.547,65.9a51.8,51.8,0,0,1,15.08,9.8c23.877,22.118,25.637,62.584,4.022,90.734s-58.562,32.926-82.188,11.059l-32.423-29.909c-5.027-4.775-6.032-12.567-3.016-19.353A117.553,117.553,0,0,0,183.975,86.007Z" transform="translate(147.271 99.842)"/>
  <path id="Path_870" data-name="Path 870" class="cls-1" d="M224.5,97.957a100.434,100.434,0,0,1-3.77-24.129,49.485,49.485,0,0,0-17.845,2.513c-31.166,9.8-50.017,46.247-42.225,80.932,7.792,34.936,39.209,55.043,70.376,45.241l42.225-13.321c6.535-2.011,11.059-9.048,11.059-16.337A119.407,119.407,0,0,1,224.5,97.957Z" transform="translate(240.46 111.769)"/>
  <path id="Path_871" data-name="Path 871" class="cls-2" d="M176.7,245.48l-39.46-58.814c-29.156-43.231-20.61-106.066,18.6-140.5C195.05,11.985,250.6,19.273,279.5,62.5c29.155,43.482,20.861,106.317-18.348,140.5l-53.284,46.5C197.815,258.047,183.991,256.287,176.7,245.48Z" transform="translate(181.437 37.386)"/>
  <path id="Path_872" data-name="Path 872" class="cls-6" d="M126.843,106c-6.032,46.247,18.851,87.718,55.8,92.745,36.947,4.775,71.884-28.653,77.916-74.9s-18.85-87.718-55.8-92.745S132.875,59.752,126.843,106Z" transform="translate(190.579 46.422)"/>
  <path id="Path_873" data-name="Path 873" class="cls-7" d="M245.254,147.033c.754.251-26.391,11.31-30.915,9.8,0,0-30.412-29.658-35.439-40.969L194.483,94C194.483,93.749,214.842,134.466,245.254,147.033Z" transform="translate(270.727 142.367)"/>
  <g id="Group_489" data-name="Group 489" transform="translate(261.373 302.471)">
    <path id="Path_874" data-name="Path 874" class="cls-3" d="M222.214,179.114l-3.77-.5a21.76,21.76,0,0,1-2.765-.251h-.754c-1.759-.251-2.765-.5-2.765-.5l-1.257-.251c-17.845-2.765-69.873-13.321-103.8-40.466.754-2.513,1.759-5.027,2.765-7.54,32.926,27.9,86.964,38.2,103.552,40.717l1.508.251c.5,0,1.005.251,1.508.251l1.257.251,1.759.251c16.337,2.011,69.873,6.786,109.082-10.054.251,2.765.251,5.53.5,8.043C291.081,184.392,242.07,181.376,222.214,179.114Z" transform="translate(-99.308 -106.225)"/>
    <path id="Path_875" data-name="Path 875" class="cls-3" d="M211.825,190.222c-18.6-3.016-73.391-14.075-107.825-42.979.754-2.514,1.508-5.027,2.513-8.043,33.177,30.161,90.734,40.969,107.825,43.733l1.508.251c.5,0,1.005.251,1.508.251a2.266,2.266,0,0,1,1.257.251l1.759.251c17.091,2.011,73.894,7.289,114.109-11.813,0,3.016,0,5.781.251,8.294-39.209,16.84-90.985,13.572-111.344,11.31l-3.77-.252a21.768,21.768,0,0,1-2.765-.251,1.511,1.511,0,0,1-1.005-.251c-1.759-.251-2.765-.5-2.765-.5Z" transform="translate(-104 -91.697)"/>
    <path id="Path_876" data-name="Path 876" class="cls-3" d="M320.821,150.209c.251,2.765.754,5.278,1.005,8.043-35.69,15.332-82.691,12.316-101.542,10.3l-3.77-.5A16.923,16.923,0,0,1,214,167.8L213,167.552a16.93,16.93,0,0,0-2.513-.251l-1.257-.251c-.5,0-1.257-.251-2.011-.251h-.251c-19.1-3.267-66.1-13.572-96.263-38.958l3.016-7.54c30.664,26.893,82.44,36.947,98.023,39.209l1.508.251a3.735,3.735,0,0,1,1.508.251l1.005.251,1.759.251C232.852,162.274,284.125,166.8,320.821,150.209Z" transform="translate(-93.86 -120.3)"/>
  </g>
  <ellipse id="Ellipse_34" data-name="Ellipse 34" class="cls-8" cx="35.942" cy="55.546" rx="35.942" ry="55.546" transform="translate(329.737 106.174)"/>
  <path id="Path_877" data-name="Path 877" class="cls-7" d="M99.314,106.567c-.754,0,17.594,18.6,21.867,19.1,0,0,23.877-2.765,49.514-24.883L161.646,84.7C161.9,84.951,129.223,107.069,99.314,106.567Z" transform="translate(150.246 128.293)"/>
  <path id="Path_878" data-name="Path 878" class="cls-7" d="M131.393,150.9S99.975,187.847,85.9,189.355c0,0-.251,7.54,18.1,15.332s31.92,15.332,31.92,15.332,5.529-.754,1.759-4.022-35.188-17.091-35.188-20.359c0-3.519,29.658-34.936,32.674-41.974Z" transform="translate(129.98 228.481)"/>
  <path id="Path_879" data-name="Path 879" class="cls-7" d="M219.686,162.5s15.332,40.969,32.172,48.509a7.9,7.9,0,0,1-5.027,8.043c-5.781,2.513-20.61,3.519-25.385,5.529s-36.947,9.3-39.209,4.776c-2.262-4.273-5.278-13.07-5.027-15.332a3.064,3.064,0,0,1,5.53-1.257c2.011,2.513,2.262,11.059,5.278,10.808s44.739-7.54,48.006-9.551c0,0-20.359-41.471-21.113-48.76Z" transform="translate(268.145 246.036)"/>
  <path id="Path_880" data-name="Path 880" class="cls-7" d="M242.421,192.844s7.791,17.342,4.273,24.883c-3.519,7.289-19.1,8.043-23.877,10.054s-32.674,13.321-52.028,9.551-22.369-9.048-37.7-14.578c-15.332-5.278-8.043-7.792-5.278-7.54,2.765.5,21.364,6.786,25.385,8.043s30.915,12.064,53.033.5,22.118-3.77,25.385-12.064-1.257-30.161,4.524-31.418S240.159,187.315,242.421,192.844Z" transform="translate(187.099 272.747)"/>
  <path id="Path_881" data-name="Path 881" class="cls-5" d="M129.006,101.2c.5-3.016,18.348,1.508,42.728,5.278.754-5.278,1.508-10.3,2.514-15.332-23.626-2.765-41.22-4.273-40.969-7.038s18.348-1.759,41.974,1.257c1.005-5.278,2.262-10.3,3.267-15.08-21.113-2.262-37.2-2.262-36.947-4.524s16.84-2.765,38.2-.754c1.508-5.529,2.765-10.3,4.021-14.326-14.326-1.759-24.883-3.016-24.631-4.524.251-1.759,11.562-1.508,26.139,0,2.262-6.535,4.021-10.054,4.524-10.054.754,0,0,4.021-1.257,10.3.754,0,1.508.251,2.262.251,17.343,2.262,31.166,5.781,30.915,7.54-.251,2.011-14.075-.5-31.418-2.765-.754,0-1.759-.251-2.513-.251-.754,4.021-1.759,9.048-3.016,14.326,1.257.251,2.262.251,3.519.5,25.386,3.267,45.493,9.3,44.99,11.813-.251,2.513-20.359-3.267-45.744-6.535-1.257-.251-2.513-.251-3.77-.5-1.005,4.775-1.759,9.8-2.765,15.08a27.7,27.7,0,0,0,4.524.5c28.4,3.77,51.525,8.043,51.022,11.059s-23.375-1.508-51.776-5.278c-1.508-.251-3.267-.5-4.775-.754-.754,5.027-1.508,10.3-2.262,15.583,1.759.251,3.267.5,5.027.754,29.658,4.021,54.038,3.519,53.536,7.289-.5,3.519-24.632,2.011-54.29-1.759-1.759-.251-3.519-.5-5.027-.754-.754,5.781-1.257,11.31-1.759,16.588,1.508.251,3.016.5,4.776.754,28.4,3.77,52.53-.251,52.279,2.765-.5,3.016-24.38,6.032-52.782,2.262L175,134.123c-.5,5.278-.754,10.556-1.257,15.332a19.4,19.4,0,0,0,3.77.5c25.385,3.267,46.749-.5,46.5,1.759-.251,2.513-23.123,6.284-48.509,3.016-.754,0-1.257-.251-2.011-.251-.251,5.781-.754,10.808-1.005,14.829.754,0,1.508.251,2.262.251,17.342,2.262,31.92-.251,31.669,1.759s-14.829,4.775-32.171,2.513c-.754,0-1.257-.251-2.011-.251-.251,5.278-.754,8.294-1.257,8.294s-1.257-3.267-1.759-8.8c-14.829-2.765-25.637-8.294-25.385-9.8.251-1.759,10.808,3.016,25.134,5.529-.251-4.273-.251-9.3-.251-15.08-21.615-4.021-36.7-11.813-36.444-14.075s15.583,4.775,36.7,8.8c0-4.775.251-9.8.754-15.332-23.626-4.273-40.717-11.813-40.466-14.326.251-2.765,17.342,4.775,40.717,9.3.5-5.278,1.005-10.808,1.759-16.589C146.6,108.486,128.5,104.465,129.006,101.2Z" transform="translate(195.202 54.742)"/>
  <path id="Path_882" data-name="Path 882" class="cls-9" d="M40.175,7.607a7.388,7.388,0,0,0,6.032,8.546L433.271,92.811c4.022.754,11.31-6.786,12.064-10.808h0c.754-4.021-3.519-13.07-7.54-13.824L48.972,1.575a7.639,7.639,0,0,0-8.8,6.032Z" transform="translate(60.591 2.304)"/>
  <path id="Path_883" data-name="Path 883" class="cls-1" d="M99.209,27.209l1.759-9.8a8.625,8.625,0,0,1,10.054-7.038,6.6,6.6,0,0,1,3.77,1.759,8.09,8.09,0,0,1,4.273-.251A8.625,8.625,0,0,1,126.1,21.931l-1.759,9.8a8.625,8.625,0,0,1-10.054,7.038,8.745,8.745,0,0,1-3.77-1.759,7.332,7.332,0,0,1-4.021.251C101.471,36.257,98.2,31.985,99.209,27.209Z" transform="translate(149.848 15.627)"/>
  <path id="Path_884" data-name="Path 884" class="cls-1" d="M34.665,7.354a9.05,9.05,0,0,0,7.289,10.3l10.054,1.759a8.862,8.862,0,0,0,10.3-7.289h0a9.05,9.05,0,0,0-7.289-10.3L44.97.065a9.191,9.191,0,0,0-10.3,7.289Z" transform="translate(52.277 0.043)"/>
  <g id="Group_490" data-name="Group 490" transform="translate(328.427 313.247)">
    <path id="Path_885" data-name="Path 885" class="cls-5" d="M216.188,153.02c-1.005-2.513-3.77-4.524-7.54-5.781a41.193,41.193,0,0,0-13.07-1.257c-1.005,0-2.011.251-3.016.251,0-.754-.251-1.508-.251-2.262-2.262-11.31-7.038-18.6-12.567-19.353-2.765-.251-5.781,1.005-8.8,3.77a37.113,37.113,0,0,0-7.54,10.808,24.506,24.506,0,0,0-1.257,2.765c-.754-.251-1.257-.5-2.011-.754-10.808-3.77-19.6-3.268-22.872,1.257-1.759,2.262-2.011,5.529-1.257,9.551.754,3.77,2.765,7.792,5.529,12.064.5.754,1.257,1.76,1.759,2.514-1.005.754-1.759,1.508-2.765,2.262-7.792,7.289-11.31,14.578-9.3,19.6,1.005,2.765,3.77,4.775,7.792,6.032a33.392,33.392,0,0,0,13.572,1.257c.754,0,1.759-.251,2.513-.251a17.294,17.294,0,0,1,.5,3.267c2.262,10.556,6.786,17.091,12.064,17.845a7.251,7.251,0,0,0,4.524-.754,23.6,23.6,0,0,0,4.524-3.016c3.016-2.765,5.53-6.535,8.043-11.31a26.042,26.042,0,0,0,1.005-2.513c1.005.5,2.262.754,3.267,1.257,7.289,2.513,13.572,2.765,17.845,1.005a7.9,7.9,0,0,0,3.519-2.765c1.759-2.262,2.262-5.781,1.257-9.8a34.721,34.721,0,0,0-5.781-12.567,13.934,13.934,0,0,0-1.508-2.011c.5-.5,1.005-.754,1.508-1.257C214.429,166.341,218.2,158.3,216.188,153.02Z" transform="translate(-130.679 -124.588)"/>
  </g>
  <g id="Group_496" data-name="Group 496" transform="translate(328.154 313.749)">
    <g id="Group_495" data-name="Group 495">
      <g id="Group_491" data-name="Group 491" transform="translate(34.76 37.732)">
        <ellipse id="Ellipse_35" data-name="Ellipse 35" class="cls-10" cx="8.294" cy="8.294" rx="8.294" ry="8.294"/>
      </g>
      <g id="Group_492" data-name="Group 492" transform="translate(0 21.056)">
        <path id="Path_886" data-name="Path 886" class="cls-10" d="M180.914,175.729c-10.556,4.524-20.61,7.289-28.4,7.792-5.278.251-9.8,0-13.572-1.257-4.021-1.257-6.535-3.267-7.791-6.032-2.011-5.027,1.257-12.316,9.3-19.6a96.268,96.268,0,0,1,26.14-15.834c10.054-4.273,20.61-7.038,29.156-7.54,5.027-.251,9.551,0,13.07,1.257,3.77,1.257,6.535,3.267,7.54,5.781,2.262,5.278-1.759,13.321-10.305,20.861A110.5,110.5,0,0,1,180.914,175.729ZM168.1,144.312c-9.8,4.273-18.851,9.8-24.883,15.08-7.289,6.535-9.3,12.316-8.294,15.08,1.257,2.765,7.038,5.529,17.342,4.775,7.54-.5,17.091-3.016,27.145-7.54,9.551-4.022,18.1-9.048,23.877-14.075,8.043-7.037,10.556-13.321,9.3-16.337-.5-1.508-2.513-2.765-5.027-3.519-3.016-1.005-7.038-1.257-11.813-1.005C187.7,137.526,177.646,140.29,168.1,144.312Z" transform="translate(-130.57 -133.165)"/>
      </g>
      <g id="Group_493" data-name="Group 493" transform="translate(23.717)">
        <path id="Path_887" data-name="Path 887" class="cls-10" d="M158.088,216.307a7.251,7.251,0,0,1-4.524.754c-5.53-.754-10.054-7.289-12.064-17.845-1.759-8.546-2.011-19.6-.5-30.663h0c1.508-11.059,4.273-21.364,8.043-29.156a37.116,37.116,0,0,1,7.54-10.808c3.016-2.765,6.032-4.021,8.8-3.77,5.529.754,10.556,8.043,12.567,19.353a93.333,93.333,0,0,1,.251,29.155c-1.508,11.562-4.021,21.615-7.54,28.9a36.258,36.258,0,0,1-8.043,11.31A14.639,14.639,0,0,1,158.088,216.307Zm-13.321-47.252c-1.257,10.556-1.257,21.364.5,29.407,2.011,9.551,5.781,14.326,8.8,14.829s8.294-3.519,12.818-12.818c3.268-6.786,5.781-16.337,7.289-27.647,1.257-10.556,1.257-20.358-.251-27.9-2.011-10.556-6.283-15.834-9.3-16.337-1.508-.251-3.519.754-5.529,2.765a35.007,35.007,0,0,0-6.786,9.8c-3.519,7.289-6.283,17.091-7.54,27.9Z" transform="translate(-140.006 -124.788)"/>
      </g>
      <g id="Group_494" data-name="Group 494" transform="translate(4.59 14.103)">
        <path id="Path_888" data-name="Path 888" class="cls-10" d="M204.038,193.237c-4.022,1.759-10.305,1.508-17.845-1.005-8.294-2.765-17.845-8.043-26.642-14.829h0c-8.8-6.786-16.337-14.326-21.113-21.615a38.783,38.783,0,0,1-5.529-12.064c-1.006-4.021-.5-7.289,1.257-9.551,3.519-4.524,12.316-5.027,22.872-1.257,7.54,2.513,16.588,7.792,25.134,14.326,9.3,7.038,16.337,14.326,20.861,21.113a39.565,39.565,0,0,1,5.781,12.567c.754,4.022.5,7.54-1.257,9.8A7.494,7.494,0,0,1,204.038,193.237Zm-41.974-18.851A98.5,98.5,0,0,0,187.7,188.713c9.3,3.016,15.332,2.011,17.091-.251,1.759-2.513,1.257-9.048-4.524-17.594-4.273-6.283-11.059-13.321-20.107-20.107-8.294-6.284-16.84-11.31-24.129-13.824-10.054-3.519-16.589-2.513-18.6,0-1.005,1.257-1.005,3.519-.5,6.284.754,3.267,2.513,6.786,5.027,10.808,4.524,6.535,11.562,13.824,20.107,20.359Z" transform="translate(-132.396 -130.399)"/>
      </g>
    </g>
  </g>
  <path id="Path_889" data-name="Path 889" class="cls-2" d="M283.457,136.621a30.855,30.855,0,0,0,9.8-42.225l-5.278-8.546a30.855,30.855,0,0,0-42.225-9.8L141.45,140.893a30.855,30.855,0,0,0-9.8,42.225l5.278,8.545a30.855,30.855,0,0,0,42.225,9.8Z" transform="translate(192.309 108.293)"/>
  <path id="Path_890" data-name="Path 890" class="cls-1" d="M257.788,161.722s14.326-53.787,18.1-93.75c0,0,2.011-10.3-25.385-21.113h0c-.251,0-.5-.251-.754-.251s-.5-.251-.754-.251h0c-27.647-10.054-32.925-1.005-32.925-1.005C193.7,76.769,166.551,126.786,166.3,127.037c8.043,21.615,30.161,32.423,37.7,35.188h0a10.576,10.576,0,0,0,1.257.5,10.566,10.566,0,0,1,1.257.5h0C213.552,165.744,237.178,172.53,257.788,161.722Z" transform="translate(251.658 63.084)"/>
  <path id="Path_891" data-name="Path 891" class="cls-1" d="M236.483,27.851a37.475,37.475,0,0,1,21.867,48.257c-7.289,19.353-23.626,18.348-42.979,11.059s-34.434-18.1-27.145-37.45A37.475,37.475,0,0,1,236.483,27.851Z" transform="translate(282.012 38.611)"/>
  <path id="Path_892" data-name="Path 892" class="cls-7" d="M241.371,34.841s10.305,13.824,3.268,27.145c-6.786,13.321-17.091,13.572-17.091,13.572l-20.61,100.285s-6.032,3.016-16.337,2.262L215.985,75.558s-11.562-1.257-8.294-5.027S222.52,67.264,227.3,65s18.6-11.31,8.545-26.139C230.563,31.071,238.1,30.066,241.371,34.841Z" transform="translate(288.434 48.461)"/>
</svg>
