<svg xmlns="http://www.w3.org/2000/svg" viewBox="0 0 150.221 35.03">
  <defs>
    <style>
      .cls-1 {
        fill: #5ce500;
      }

      .cls-2 {
        fill: #fff;
      }
    </style>
  </defs>
  <g id="Group_430" data-name="Group 430" transform="translate(-1733 -261)">
    <path id="Path_2393" data-name="Path 2393" class="cls-1" d="M28.847,164.349a1.183,1.183,0,0,1-.523.929l-7.258,4.181v-16.2L7.071,145.187l7.258-4.181a1.111,1.111,0,0,1,1.045,0l13.472,7.781ZM17.93,155.058l-9.581-5.516a1.111,1.111,0,0,0-1.045,0L.8,153.258l10.1,5.865v11.672l6.5-3.716a1.183,1.183,0,0,0,.523-.929ZM.858,164.93l7.026,4.065v-8.071Z" transform="translate(1732.2 120.125)"/>
    <path id="Path_11" data-name="Path 11" class="cls-2" d="M70.165,154.5H62.5v20.672h3.368v-8.13h4.3c4.645,0,7.2-2.265,7.2-6.387,0-1.858-.7-6.155-7.2-6.155m3.716,6.213c0,2.323-1.219,3.31-4.181,3.31H65.868v-6.5h4.3c2.5,0,3.716,1.045,3.716,3.194m13.53-.639.232.116-.581,3.078-.406-.116a2.949,2.949,0,0,0-.987-.174c-3.136,0-3.426,2.5-3.426,5.574v6.562H79.107V159.958h2.961v1.858a4.277,4.277,0,0,1,5.342-1.742m7.723-.407a6.5,6.5,0,0,0-5.691,2.729,9.078,9.078,0,0,0-1.51,5.226c0,4.82,2.845,7.9,7.258,7.9,5.342,0,7.258-4.3,7.258-8.013a8.456,8.456,0,0,0-1.8-5.458,6.909,6.909,0,0,0-5.516-2.381m0,13.007c-2.439,0-4.007-1.974-4.007-5.11,0-3.194,1.51-5.168,4.007-5.168,2.439,0,4.007,1.974,4.007,5.11,0,3.194-1.51,5.168-4.007,5.168m33.621-12.6.232.116-.581,3.078-.406-.116a2.949,2.949,0,0,0-.987-.174c-3.136,0-3.426,2.5-3.426,5.574v6.562h-3.136V159.958h2.961v1.858a4.125,4.125,0,0,1,3.019-2.032,4.293,4.293,0,0,1,2.323.29m11.265,10.22-.058.174a3.334,3.334,0,0,1-3.426,2.265c-2.381,0-3.891-1.568-4.065-4.123h10.743l.058-.29a8.58,8.58,0,0,0,.058-1.219v-.29c-.174-4.239-2.9-7.084-6.91-7.084a6.672,6.672,0,0,0-5.516,2.613,8.92,8.92,0,0,0-1.626,5.284c0,4.7,2.9,7.839,7.258,7.839,3.368,0,5.691-1.684,6.5-4.82l.116-.348Zm-7.433-4.471a3.657,3.657,0,0,1,3.774-3.426,3.548,3.548,0,0,1,3.658,3.426Zm-17.827-4.587a5.336,5.336,0,0,0-4.007-1.568c-4.587,0-6.678,4.065-6.678,7.839,0,3.832,2.09,7.781,6.678,7.781a5.386,5.386,0,0,0,3.891-1.568,10.822,10.822,0,0,1-.058,1.568c-.174,2.5-1.394,3.658-3.774,3.658-1.336,0-2.845-.465-3.136-1.8l-.058-.29h-3.078l.058.406c.348,2.671,2.671,4.355,6.155,4.355,3.02,0,5.168-1.161,6.271-3.31a10.454,10.454,0,0,0,.755-4.529v-13.82h-2.961v1.277Zm-3.832,11.207c-1.1,0-3.658-.523-3.658-5.11,0-3.02,1.452-4.878,3.716-4.878,1.8,0,3.658,1.277,3.658,4.878.058,3.194-1.336,5.11-3.716,5.11m46.861-1.858c0,2.439-2.032,4.878-6.5,4.878-3.949,0-6.329-1.742-6.62-4.82l-.058-.348h3.078l.058.232c.406,1.858,2.149,2.265,3.6,2.265,1.568,0,3.252-.523,3.252-1.916,0-.7-.465-1.219-1.394-1.51-.523-.174-1.219-.348-1.916-.523-1.219-.348-2.5-.7-3.252-.987-1.916-.7-3.02-2.032-3.02-3.658,0-3.078,2.961-4.413,5.923-4.413,3.949,0,5.981,1.51,6.271,4.529v.29h-3.02l-.058-.232c-.29-1.742-2.032-2.032-3.078-2.032-.871,0-2.9.174-2.9,1.626,0,.639.581,1.161,1.742,1.51.348.116.871.232,1.452.406,1.219.348,2.787.7,3.542.987a3.657,3.657,0,0,1,2.9,3.716m14.459,0c0,2.439-2.032,4.878-6.5,4.878-3.949,0-6.329-1.742-6.62-4.82l-.058-.348h3.078l.058.232c.406,1.858,2.148,2.265,3.6,2.265,1.568,0,3.252-.523,3.252-1.916,0-.7-.465-1.219-1.394-1.51-.523-.174-1.219-.348-1.916-.523-1.219-.348-2.5-.7-3.252-.987-1.916-.7-3.019-2.032-3.019-3.658,0-3.078,2.961-4.413,5.923-4.413,3.949,0,5.981,1.51,6.271,4.529v.29h-3.02l-.058-.232c-.29-1.742-2.032-2.032-3.078-2.032-.871,0-2.9.174-2.9,1.626,0,.639.581,1.161,1.742,1.51.348.116.871.232,1.452.406,1.219.348,2.787.7,3.542.987a3.657,3.657,0,0,1,2.9,3.716" transform="translate(1706.328 114.412)"/>
    <path id="Path_12" data-name="Path 12" class="cls-2" d="M254.249,163.6a2.144,2.144,0,0,1-2.149-2.148,2.107,2.107,0,0,1,2.149-2.149,2.144,2.144,0,0,1,2.148,2.149,2.107,2.107,0,0,1-2.148,2.148m0-3.949a1.8,1.8,0,1,0,1.742,1.8,1.725,1.725,0,0,0-1.742-1.8m-.232,2.207v.7h-.639v-2.265h1.045a.735.735,0,0,1,.813.813.7.7,0,0,1-.465.7l.523.813h-.7l-.465-.7h-.116Zm.348-1.045h-.348v.523h.348a.266.266,0,0,0,.29-.232.274.274,0,0,0-.29-.29" transform="translate(1626.824 112.399)"/>
  </g>
</svg>
