<svg xmlns="http://www.w3.org/2000/svg" viewBox="0 0 1839.161 1806.072">
  <defs>
    <style>
      .cls-1 {
        opacity: 0.698;
      }

      .cls-2 {
        fill: #34475f;
      }

      .cls-3 {
        fill: #263446;
      }
    </style>
  </defs>
  <g id="Group_1268" data-name="Group 1268" transform="translate(-231.038 -254.701)">
    <g id="Group_1261" data-name="Group 1261" class="cls-1" transform="matrix(0.809, 0.588, -0.588, 0.809, 1008.254, 5.964)">
      <g id="Group_1260" data-name="Group 1260" transform="translate(0 0)">
        <g id="Group_1256" data-name="Group 1256" transform="translate(639.83 693.824)">
          <ellipse id="Ellipse_59" data-name="Ellipse 59" class="cls-2" cx="152.671" cy="152.514" rx="152.671" ry="152.514"/>
        </g>
        <g id="Group_1257" data-name="Group 1257" transform="translate(0 387.185)">
          <path id="Path_9463" data-name="Path 9463" class="cls-2" d="M926.667,782.667C732.358,865.857,547.3,916.695,403.883,925.939c-97.155,4.622-180.429,0-249.825-23.109C80.036,879.723,33.771,842.749,10.64,791.911c-37.011-92.432,23.132-226.46,171.176-360.488C302.1,325.125,473.28,218.828,662.961,140.26,848.017,61.693,1042.327,10.853,1199.625,1.611c92.528-4.622,175.8,0,240.573,23.107,69.4,23.108,120.286,60.082,138.793,106.3,41.636,97.055-32.386,244.946-189.684,383.6C1273.647,607.044,1111.723,704.1,926.667,782.667ZM690.721,204.962C510.292,283.53,343.74,385.205,232.707,482.261,98.541,602.424,61.531,708.722,80.036,759.56c23.131,50.838,129.539,101.676,319.221,87.81,138.791-9.244,314.6-55.459,499.652-138.648,175.8-73.949,333.1-166.381,439.508-258.814C1486.461,320.5,1532.726,204.961,1509.594,149.5c-9.253-27.73-46.265-50.838-92.529-64.7-55.516-18.486-129.54-23.109-217.44-18.486C1051.58,80.177,866.524,131.016,690.721,204.962Z" transform="translate(0 0)"/>
        </g>
        <g id="Group_1258" data-name="Group 1258" transform="translate(436.547 0)">
          <path id="Path_9464" data-name="Path 9464" class="cls-2" d="M332.824,1682.854q-41.639,20.8-83.276,13.865C147.767,1682.854,64.491,1562.691,27.48,1368.582-4.9,1211.446-9.532,1008.094,18.227,804.742h0C45.986,601.391,96.876,411.9,166.272,268.632c41.638-83.189,87.9-152.514,138.793-198.73C360.581,19.064,416.1-4.043,466.988.578,568.769,14.442,661.3,148.469,698.308,356.443c27.758,147.893,32.385,337.378,4.627,536.109-27.759,212.6-74.023,397.462-138.793,531.49-41.637,87.811-92.528,157.135-148.044,207.973C388.339,1655.124,360.581,1673.611,332.824,1682.854ZM87.625,813.985c-23.134,194.108-23.134,392.839,9.251,540.733,37.013,175.621,106.409,263.432,161.925,272.675s152.671-64.7,235.946-235.7c60.144-124.784,106.407-300.407,134.167-508.38,23.132-194.109,23.132-374.352-4.628-513C587.275,176.2,508.625,79.144,453.11,69.9c-27.759-4.621-64.77,13.865-101.781,50.838-41.638,41.595-87.9,101.676-124.913,180.243-64.77,134.029-115.66,314.273-138.791,513Z" transform="translate(0 0)"/>
        </g>
        <g id="Group_1259" data-name="Group 1259" transform="translate(84.483 259.325)">
          <path id="Path_9465" data-name="Path 9465" class="cls-2" d="M1318.7,1155.475c-74.022,32.351-189.683,27.73-328.475-18.486C837.556,1086.15,661.753,989.1,499.83,864.311h0C337.9,739.528,199.113,600.878,111.212,466.851,60.321,388.283,23.312,309.716,9.432,245.013-9.074,171.065.179,110.985,32.564,69.389c64.768-83.189,226.693-92.432,421-23.108C592.358,92.5,758.909,189.551,916.207,309.714c171.176,129.406,300.716,263.433,383.991,388.217,55.516,78.568,87.9,161.758,106.407,231.082,13.88,73.946,9.253,138.65-23.131,180.244C1369.594,1127.745,1346.462,1146.23,1318.7,1155.475ZM546.093,808.851c157.3,120.163,328.475,212.6,471.894,263.434,171.176,55.458,282.211,36.973,314.594-4.622,32.385-46.216,23.133-166.379-83.274-323.515C1170.658,628.607,1045.745,499.2,879.2,374.416c-152.671-115.54-309.968-207.974-444.134-254.19-185.058-64.7-305.344-46.215-342.353,0C74.2,143.336,74.2,184.929,83.454,235.769c13.88,60.081,46.264,124.783,92.528,198.729C259.258,554.661,388.8,688.69,546.093,808.851Z" transform="translate(0 0)"/>
        </g>
      </g>
    </g>
    <g id="Group_1267" data-name="Group 1267" transform="translate(1068.87 0) rotate(39)">
      <g id="Group_1266" data-name="Group 1266" transform="translate(0 0)">
        <g id="Group_1262" data-name="Group 1262" transform="translate(639.83 693.824)">
          <ellipse id="Ellipse_60" data-name="Ellipse 60" class="cls-3" cx="152.671" cy="152.514" rx="152.671" ry="152.514"/>
        </g>
        <g id="Group_1263" data-name="Group 1263" transform="translate(0 387.185)">
          <path id="Path_9466" data-name="Path 9466" class="cls-3" d="M926.667,782.667C732.358,865.857,547.3,916.695,403.883,925.939c-97.154,4.622-180.429,0-249.825-23.109C80.036,879.723,33.771,842.749,10.64,791.911c-37.011-92.432,23.132-226.46,171.176-360.488C302.1,325.125,473.28,218.828,662.961,140.26,848.017,61.693,1042.327,10.853,1199.625,1.611c92.528-4.622,175.8,0,240.573,23.107,69.4,23.108,120.286,60.082,138.793,106.3,41.636,97.055-32.386,244.946-189.684,383.6C1273.646,607.044,1111.723,704.1,926.667,782.667ZM690.721,204.962C510.292,283.53,343.74,385.205,232.707,482.261,98.541,602.424,61.531,708.722,80.036,759.56c23.131,50.838,129.539,101.676,319.221,87.81,138.791-9.244,314.6-55.459,499.652-138.648,175.8-73.949,333.1-166.381,439.508-258.814C1486.461,320.5,1532.726,204.961,1509.594,149.5c-9.253-27.73-46.265-50.838-92.529-64.7-55.516-18.486-129.54-23.109-217.44-18.486C1051.58,80.177,866.524,131.016,690.721,204.962Z" transform="translate(0 0)"/>
        </g>
        <g id="Group_1264" data-name="Group 1264" transform="translate(436.547 0)">
          <path id="Path_9467" data-name="Path 9467" class="cls-3" d="M332.824,1682.854q-41.639,20.8-83.276,13.865C147.767,1682.854,64.491,1562.691,27.48,1368.582-4.9,1211.446-9.532,1008.094,18.227,804.742h0C45.986,601.391,96.876,411.9,166.272,268.632c41.638-83.189,87.9-152.514,138.793-198.73C360.581,19.064,416.1-4.043,466.988.578,568.769,14.442,661.3,148.469,698.308,356.443c27.758,147.893,32.385,337.378,4.627,536.109-27.759,212.6-74.022,397.462-138.793,531.49-41.637,87.811-92.528,157.135-148.044,207.973C388.339,1655.124,360.581,1673.611,332.824,1682.854ZM87.625,813.985c-23.134,194.108-23.134,392.839,9.251,540.733,37.013,175.621,106.409,263.432,161.925,272.675s152.671-64.7,235.946-235.7c60.144-124.784,106.408-300.407,134.167-508.38,23.132-194.108,23.132-374.352-4.628-513C587.275,176.2,508.625,79.144,453.11,69.9c-27.759-4.621-64.77,13.865-101.781,50.838-41.638,41.595-87.9,101.676-124.913,180.243-64.77,134.029-115.66,314.273-138.792,513Z" transform="translate(0 0)"/>
        </g>
        <g id="Group_1265" data-name="Group 1265" transform="translate(84.483 259.325)">
          <path id="Path_9468" data-name="Path 9468" class="cls-3" d="M1318.7,1155.475c-74.022,32.351-189.683,27.73-328.475-18.486C837.556,1086.15,661.753,989.1,499.83,864.311h0C337.9,739.528,199.113,600.878,111.212,466.851,60.321,388.283,23.312,309.716,9.432,245.013-9.074,171.065.179,110.985,32.564,69.389c64.768-83.189,226.693-92.432,421-23.108C592.358,92.5,758.909,189.551,916.207,309.714c171.176,129.407,300.716,263.433,383.992,388.217,55.516,78.568,87.9,161.758,106.407,231.082,13.879,73.946,9.253,138.65-23.131,180.244C1369.593,1127.745,1346.461,1146.23,1318.7,1155.475ZM546.093,808.851c157.3,120.163,328.475,212.6,471.894,263.434,171.176,55.458,282.211,36.973,314.594-4.622,32.385-46.216,23.133-166.379-83.274-323.515C1170.658,628.607,1045.745,499.2,879.195,374.416c-152.671-115.54-309.968-207.974-444.134-254.19-185.058-64.7-305.344-46.215-342.353,0C74.2,143.336,74.2,184.929,83.454,235.769c13.88,60.081,46.264,124.783,92.528,198.729C259.257,554.661,388.8,688.69,546.093,808.851Z" transform="translate(0 0)"/>
        </g>
      </g>
    </g>
  </g>
</svg>
